<svg xmlns="http://www.w3.org/2000/svg" width="35.067" height="36.667" viewBox="0 0 35.067 36.667"><g transform="translate(-9.02 -6)" opacity="0.8"><path d="M27.746,6A18.74,18.74,0,0,0,9.02,24.523v.019a18.333,18.333,0,0,0,33.7,9.793.8.8,0,0,0-1.336-.872,16.737,16.737,0,0,1-30.765-8.93A17.123,17.123,0,0,1,27.746,7.594,14.723,14.723,0,0,1,42.464,21.751,14.078,14.078,0,0,1,39,30.385c-1.979,2.26-4.456,3.513-6.077,3.513a1.581,1.581,0,0,1-1.59-1.582,15.349,15.349,0,0,1,.914-3.748c0-.006,0-.013.006-.022l5.394-13.483a.8.8,0,1,0-1.478-.592L35.1,17.15a6.416,6.416,0,0,0-2-2.572,8.1,8.1,0,0,0-4.961-1.4c-2.234,0-5.109,1.394-7.554,3.9a15.4,15.4,0,0,0-4.4,10.844,7.585,7.585,0,0,0,7.572,7.572,7.5,7.5,0,0,0,5.452-2.263c.2-.2.383-.4.559-.611a3.189,3.189,0,0,0,3.155,2.874c2.364,0,5.069-1.537,7.275-4.059a15.685,15.685,0,0,0,3.809-8.74.8.8,0,0,0,.076-.353c0-.263-.008-.525-.021-.785,0-.138.021-.271.021-.411a.81.81,0,0,0-.075-.345A16.354,16.354,0,0,0,27.746,6Zm.4,8.768a6.534,6.534,0,0,1,4.006,1.087,5.632,5.632,0,0,1,2.018,3.633L30.774,27.97,30.761,28l-.286.715c-.013.02-.027.04-.039.062a17.837,17.837,0,0,1-2.35,3.325A5.737,5.737,0,0,1,23.761,33.9a5.967,5.967,0,0,1-5.978-5.978,13.753,13.753,0,0,1,3.949-9.731C23.931,15.932,26.637,14.768,28.145,14.768Z" fill="#2f3033"/></g></svg>