<svg xmlns="http://www.w3.org/2000/svg" width="21.918" height="35.973" viewBox="0 0 21.918 35.973"><g transform="translate(-32.959 -6)" opacity="0.8"><path d="M35.447,6A2.5,2.5,0,0,0,32.97,8.492v2.069a.763.763,0,0,0,0,.255V36.367a.763.763,0,0,0,0,.255v2.859a2.5,2.5,0,0,0,2.477,2.492H52.39a2.5,2.5,0,0,0,2.476-2.492V36.63a.759.759,0,0,0,0-.255V10.823a.759.759,0,0,0,0-.255V8.492A2.5,2.5,0,0,0,52.389,6Zm0,1.564H52.389a.919.919,0,0,1,.913.928V9.91H34.534V8.492A.919.919,0,0,1,35.447,7.564Zm-.913,3.91H53.3V35.716H34.534Zm9.384,6.256a6.256,6.256,0,1,0,6.256,6.256A6.268,6.268,0,0,0,43.918,17.73Zm0,1.564A4.674,4.674,0,0,1,48.54,23.2H46.933a3.11,3.11,0,0,0-6.03,0H39.3A4.674,4.674,0,0,1,43.918,19.294Zm0,3.128a1.564,1.564,0,1,1-1.564,1.564A1.553,1.553,0,0,1,43.918,22.422ZM39.3,24.768H40.9a3.11,3.11,0,0,0,6.03,0H48.54a4.687,4.687,0,0,1-9.244,0ZM34.534,37.28H53.3v2.2a.918.918,0,0,1-.912.928H35.447a.918.918,0,0,1-.913-.928Zm7.038.782a.782.782,0,1,0,0,1.564h4.692a.782.782,0,1,0,0-1.564Z" fill="#2f3033"/></g></svg>