<svg xmlns="http://www.w3.org/2000/svg" width="30.556" height="36.667" viewBox="0 0 30.556 36.667"><g transform="translate(-15 -6)" opacity="0.8"><path d="M30.278,6a9.942,9.942,0,0,0-9.931,9.931v4.583H17.292A2.3,2.3,0,0,0,15,22.806V40.375a2.3,2.3,0,0,0,2.292,2.292H43.264a2.3,2.3,0,0,0,2.292-2.292V22.806a2.3,2.3,0,0,0-2.292-2.292H40.208V15.931A9.942,9.942,0,0,0,30.278,6Zm0,1.528a8.392,8.392,0,0,1,8.4,8.4v4.583H21.875V15.931A8.392,8.392,0,0,1,30.278,7.528ZM17.292,22.042H43.264a.752.752,0,0,1,.764.764V40.375a.752.752,0,0,1-.764.764H17.292a.752.752,0,0,1-.764-.764V22.806A.752.752,0,0,1,17.292,22.042Zm3.819,8.4a1.528,1.528,0,1,0,1.528,1.528A1.528,1.528,0,0,0,21.111,30.444Zm6.111,0a1.528,1.528,0,1,0,1.528,1.528A1.528,1.528,0,0,0,27.222,30.444Zm6.111,0a1.528,1.528,0,1,0,1.528,1.528A1.528,1.528,0,0,0,33.333,30.444Zm6.111,0a1.528,1.528,0,1,0,1.528,1.528A1.528,1.528,0,0,0,39.444,30.444Z" fill="#2f3033"/></g></svg>