<svg xmlns="http://www.w3.org/2000/svg" width="30.497" height="32.374" viewBox="0 0 30.497 32.374"><g transform="translate(-17.813 -10.219)" opacity="0.8"><path d="M32.966,10.219c-3.551.065-5.819,1.5-6.793,3.729-.929,2.123-.721,4.8-.048,7.577a2.266,2.266,0,0,0-.546,1.853,4.075,4.075,0,0,0,.736,2.066c.2.255.466.279.713.4a8.162,8.162,0,0,0,.689,2.256,6.931,6.931,0,0,0,.618,1.021,3.564,3.564,0,0,0,.333.309c.006.938.009,1.719-.071,2.708a3.345,3.345,0,0,1-1.758,1.544c-.965.481-2.221.926-3.492,1.472a11.113,11.113,0,0,0-3.61,2.257,6.588,6.588,0,0,0-1.876,4.37l-.048.807h30.5l-.048-.807a6.6,6.6,0,0,0-1.876-4.37A11.046,11.046,0,0,0,42.8,35.158c-1.265-.546-2.506-.992-3.468-1.472a3.415,3.415,0,0,1-1.758-1.52c-.083-1-.077-1.784-.071-2.731a4.02,4.02,0,0,0,.333-.309,7.243,7.243,0,0,0,.594-1.021,8.394,8.394,0,0,0,.689-2.256c.238-.125.493-.154.689-.4a4.075,4.075,0,0,0,.736-2.066,2.255,2.255,0,0,0-.522-1.805,14.291,14.291,0,0,0,.689-5.154,5.989,5.989,0,0,0-1.022-3.088,4.475,4.475,0,0,0-2.8-1.686,4.73,4.73,0,0,0-3.9-1.425Zm.024,1.52h.024c1.529.006,2.521.454,2.8.95l.19.309.356.048a2.847,2.847,0,0,1,2.09,1.164,4.62,4.62,0,0,1,.736,2.328,14.117,14.117,0,0,1-.713,4.94l-.19.594.523.309a.91.91,0,0,1,.214.831,2.714,2.714,0,0,1-.4,1.306c-.137.175-.208.166-.214.166l-.641.048-.071.618a6.909,6.909,0,0,1-.641,2.09,5.659,5.659,0,0,1-.451.784c-.14.193-.285.3-.214.261l-.4.214v.451a31.955,31.955,0,0,0,.071,3.278v.1l.048.1a4.737,4.737,0,0,0,2.541,2.446c1.1.552,2.372.959,3.563,1.473a9.67,9.67,0,0,1,3.088,1.948,4.929,4.929,0,0,1,1.259,2.589H19.57a4.919,4.919,0,0,1,1.259-2.589,9.756,9.756,0,0,1,3.111-1.948c1.2-.514,2.455-.92,3.563-1.473a4.773,4.773,0,0,0,2.565-2.446l.048-.19a31.957,31.957,0,0,0,.071-3.278V28.7l-.4-.214c.068.036-.1-.068-.238-.261a5.521,5.521,0,0,1-.475-.784,6.636,6.636,0,0,1-.641-2.09l-.071-.618-.641-.048c-.006,0-.077.009-.214-.166a2.716,2.716,0,0,1-.4-1.306.921.921,0,0,1,.214-.831l.5-.309-.143-.546c-.716-2.755-.84-5.258-.1-6.959S29.831,11.8,32.99,11.739Z" fill="#2f3033"/></g></svg>